<svg width="80" height="80" viewBox="0 0 80 80" fill="none" xmlns="http://www.w3.org/2000/svg">
<circle cx="40" cy="40" r="40" fill="#873EAF"/>
<g clip-path="url(#clip0_2002_87)">
<path d="M70 40C70 56.5634 56.5634 70 40 70C23.4366 70 10 56.5634 10 40C10 23.4366 23.4366 10 40 10C56.5634 10 70 23.4366 70 40Z" fill="#F8F9FF"/>
<path d="M58.507 34.0845L62.1408 30.1127H54.1126C50.1408 27.4085 45.2394 25.8029 39.9999 25.8029C34.7605 25.8029 29.9436 27.4085 25.9718 30.1127H17.9436L21.5774 34.0845C19.3802 36.1127 17.9436 38.986 17.9436 42.2817C17.9436 48.3662 22.845 53.3521 29.014 53.3521C31.8873 53.3521 34.507 52.2536 36.5352 50.3944L40.0844 54.2817L43.6337 50.3944C45.5774 52.2536 48.1971 53.3521 51.1549 53.3521C57.2394 53.3521 62.2253 48.4507 62.2253 42.2817C62.0563 38.986 60.7042 36.1127 58.507 34.0845ZM28.9295 49.7183C24.7887 49.7183 21.4929 46.3381 21.4929 42.2817C21.4929 38.1409 24.8732 34.8451 28.9295 34.8451C33.0704 34.8451 36.3661 38.2254 36.3661 42.2817C36.4506 46.3381 33.0704 49.7183 28.9295 49.7183ZM39.9999 42.0282C39.9999 37.1268 36.4506 32.9014 31.7183 31.1268C34.2535 30.0282 37.0422 29.4367 39.9999 29.4367C42.9577 29.4367 45.7464 30.0282 48.2816 31.1268C43.5492 32.9014 39.9999 37.1268 39.9999 42.0282ZM51.0704 49.7183C46.9295 49.7183 43.6337 46.3381 43.6337 42.2817C43.6337 38.1409 47.014 34.8451 51.0704 34.8451C55.2112 34.8451 58.507 38.2254 58.507 42.2817C58.507 46.3381 55.1267 49.7183 51.0704 49.7183ZM51.0704 38.3099C48.8732 38.3099 47.183 40.0845 47.183 42.1972C47.183 44.3099 48.9577 46.0845 51.0704 46.0845C53.2675 46.0845 54.9577 44.3099 54.9577 42.1972C54.9577 40.0845 53.183 38.3099 51.0704 38.3099ZM32.9014 42.1972C32.9014 44.3944 31.1267 46.0845 29.014 46.0845C26.8168 46.0845 25.1267 44.3099 25.1267 42.1972C25.1267 40.0845 26.9014 38.3099 29.014 38.3099C31.1267 38.3099 32.9014 40.0845 32.9014 42.1972Z" fill="#2D2D2D"/>
</g>
<defs>
<clipPath id="clip0_2002_87">
<rect width="60" height="60" fill="white" transform="translate(10 10)"/>
</clipPath>
</defs>
</svg>
