<svg width="80" height="80" viewBox="0 0 80 80" fill="none" xmlns="http://www.w3.org/2000/svg">
<circle cx="40" cy="40" r="40" fill="#873EAF"/>
<g clip-path="url(#clip0_2002_24)">
<path fill-rule="evenodd" clip-rule="evenodd" d="M39.822 10.1616C56.4158 10.1616 69.822 23.5324 69.7283 40.1756C69.7283 52.6114 62.2283 63.2706 51.3533 67.8521C50.7908 68.1326 49.947 68.3196 49.197 68.3196C46.1033 68.3196 43.572 65.7951 43.572 62.7095C43.572 60.372 44.9783 58.4085 47.0408 57.567L47.4158 57.3799C53.9783 54.4814 58.4783 47.9363 58.4783 40.2691C58.4783 29.8905 50.0408 21.5688 39.7283 21.5688C29.4158 21.5688 20.9783 29.984 20.9783 40.2691C20.9783 48.0298 25.7595 54.6684 32.5095 57.567L32.7908 57.6605C34.6658 58.5955 35.9783 60.4655 35.9783 62.7095C35.9783 65.7951 33.447 68.3196 30.3533 68.3196C29.6033 68.3196 28.7595 68.1326 28.197 67.8521C17.322 63.1771 9.82202 52.5179 9.82202 40.1756C9.82202 23.5324 23.322 10.1616 39.822 10.1616ZM39.822 28.8619C46.0095 28.8619 51.072 33.911 51.072 40.0821C51.072 46.2533 46.0095 51.3023 39.822 51.3023C33.6345 51.3023 28.572 46.2533 28.572 40.0821C28.572 33.911 33.6345 28.8619 39.822 28.8619Z" fill="#F8F9FF"/>
</g>
<defs>
<clipPath id="clip0_2002_24">
<rect width="60" height="58.0645" fill="white" transform="translate(9.82202 10.1616)"/>
</clipPath>
</defs>
</svg>
