<svg width="80" height="80" viewBox="0 0 80 80" fill="none" xmlns="http://www.w3.org/2000/svg">
<circle cx="40" cy="40" r="40" fill="#873EAF"/>
<g clip-path="url(#clip0_2002_93)">
<path d="M67.6844 36.8142C66.2849 35.416 64.4486 34.6459 62.5127 34.6459C61.0969 34.6459 59.6744 35.1731 58.8925 35.6935C57.2738 36.7713 55.9435 37.9412 53.5484 41.0344V43.2579C55.5805 40.6117 57.5034 38.5263 58.9632 37.3795C59.9226 36.6093 61.284 36.1322 62.5127 36.1322C65.6841 36.1322 68.3647 38.8106 68.3647 41.9824V43.3206C68.3647 44.8879 67.7491 46.3603 66.6273 47.4687C65.5169 48.5667 64.0543 49.1713 62.5127 49.1713C59.9064 49.1713 57.6122 47.3829 56.9887 44.9407L55.9411 46.2102C56.7052 48.7692 59.4648 50.6572 62.5127 50.6572C64.4486 50.6572 66.2849 49.8859 67.6844 48.4905C69.0819 47.0923 69.8511 45.2567 69.8511 43.3206V41.9824C69.8511 40.0472 69.0819 38.2107 67.6844 36.8142ZM35.8427 36.1322C36.8526 36.1322 37.7259 36.3489 38.5142 36.7951C38.8847 36.3322 39.2588 35.9563 39.5376 35.678C38.7036 35.0413 37.2914 34.6459 35.8427 34.6459C33.7781 34.6459 31.9033 35.3902 30.5646 36.7427C29.2358 38.0829 28.5019 39.9435 28.5019 41.9824V50.6572H29.9884V41.9824C29.9884 38.5378 32.3957 36.1322 35.8427 36.1322ZM49.9684 50.6572V41.9824C49.9684 39.3155 47.8783 37.2258 45.2101 37.2258C43.9675 37.2258 42.7813 37.7288 41.8671 38.6415C40.9549 39.5533 40.4521 40.7411 40.4521 41.9824V43.3206C40.4521 45.8982 42.6319 48.0776 45.2101 48.0776C45.9169 48.0776 46.8792 47.9038 47.4681 47.4206V45.8502C46.8895 46.315 46.0496 46.5917 45.2101 46.5917C43.3761 46.5917 41.9386 45.1539 41.9386 43.3206V41.9824C41.9386 40.1488 43.3761 38.7133 45.2101 38.7133C47.0456 38.7133 48.4819 40.1488 48.4819 41.9824V50.6572H49.9684ZM10.1489 41.1214V41.6013C10.1489 44.1777 11.1266 46.5818 12.903 48.3698C14.6749 50.1538 17.0501 51.1348 19.5909 51.1348C21.6337 51.1348 23.4426 50.6727 24.9695 49.7648C26.2284 49.0145 26.7864 48.2563 26.8344 48.1868V40.1877H19.2299V41.6744H25.348V47.7251L25.342 47.7303C24.6256 48.4476 22.9251 49.6477 19.5909 49.6477C17.4182 49.6477 15.4068 48.82 13.9236 47.3135C12.4479 45.8141 11.6354 43.7851 11.6354 41.6013V41.1214C11.6354 39.0595 12.5658 37.0023 14.1869 35.4803C15.8421 33.9293 17.9984 33.0742 20.2601 33.0742C22.3692 33.0742 23.8385 33.3942 25.0188 34.1088V32.441C23.7901 31.9186 22.3215 31.684 20.2601 31.684C14.7798 31.684 10.1489 36.0067 10.1489 41.1214ZM35.8427 38.7133C36.4066 38.7133 36.8844 38.8066 37.2648 38.9916C37.4499 38.5303 37.6397 38.15 37.9165 37.6883C37.5122 37.3993 36.55 37.2258 35.8427 37.2258C33.1304 37.2258 31.0844 39.2707 31.0844 41.9824V50.6572H32.5708V41.9824C32.5708 40.0567 33.9167 38.7133 35.8427 38.7133ZM25.0188 36.9686V35.2116C23.6737 34.4903 22.206 34.1687 20.2601 34.1687C18.2744 34.1687 16.3921 34.8972 14.9577 36.2167C13.5221 37.541 12.7306 39.283 12.7306 41.1214V41.6013C12.7306 45.4357 15.8075 48.5548 19.5909 48.5548C22.6682 48.5548 23.9314 47.5481 24.2531 47.2297V42.7684H19.2299V44.2539H22.8624V46.4893L22.8493 46.4937C22.3819 46.6799 21.4113 47.0681 19.5909 47.0681C18.1478 47.0681 16.7975 46.5072 15.7881 45.4858C14.7738 44.4608 14.217 43.0805 14.217 41.6013V41.1214C14.217 38.1583 16.9846 35.6554 20.2601 35.6554C22.526 35.6554 23.8659 36.0222 25.0188 36.9686ZM60.1081 39.7681C60.7788 39.0992 61.6569 38.7133 62.5127 38.7133C64.3466 38.7133 65.785 40.1488 65.785 41.9824V43.3206C65.785 45.1539 64.3466 46.5917 62.5127 46.5917C61.6247 46.5917 60.7669 46.1039 60.095 45.2222C59.4993 44.4425 59.1133 43.3877 59.0537 42.4397L57.8501 43.909C58.0863 45.0328 58.6741 46.1098 59.5045 46.8668C60.3615 47.6465 61.4297 48.0776 62.5127 48.0776C65.1373 48.0776 67.2706 45.9435 67.2706 43.3206V41.9824C67.2706 40.7411 66.7678 39.5533 65.8556 38.6415C64.9419 37.7288 63.7553 37.2258 62.5127 37.2258C61.7272 37.2258 60.4778 37.5073 58.989 38.8455L58.9838 38.8507C58.5855 39.2492 57.6499 40.1845 57.0808 40.8514C56.1238 41.8951 54.733 43.4707 53.5484 45.0471V47.3674C54.8633 45.6787 55.6202 44.7327 56.8561 43.306C57.9628 42.015 59.3329 40.4461 60.1081 39.7681ZM37.8716 43.3206C37.8716 45.2567 38.6417 47.0923 40.0391 48.4905C41.4378 49.8859 43.2745 50.6572 45.2101 50.6572C46.0301 50.6572 46.8724 50.4821 47.4681 50.1888V48.7041C46.7723 48.9954 45.9316 49.1713 45.2101 49.1713C42.0386 49.1713 39.3573 46.4925 39.3573 43.3206V41.9824C39.3573 38.8106 42.0386 36.1322 45.2101 36.1322C46.787 36.1322 48.2611 36.7356 49.3608 37.8348C50.4592 38.9328 51.0628 40.406 51.0628 41.9824V50.6572H52.5493V41.6966C52.4567 39.8034 51.6482 38.0321 50.273 36.7078C48.8957 35.3783 47.0956 34.6459 45.2101 34.6459C43.2745 34.6459 41.4378 35.416 40.0391 36.8142C38.6417 38.2107 37.8716 40.0472 37.8716 41.9824V43.3206ZM55.0789 37.568C55.534 37.0218 56.005 36.4668 56.5634 35.9984V28.1489H55.0789V37.568ZM57.6586 35.3902V28.1489H59.1443V34.3712C58.7408 34.5748 58.1769 34.9623 57.6586 35.3902Z" fill="#F8F9FF"/>
</g>
<defs>
<clipPath id="clip0_2002_93">
<rect width="60" height="23.2836" fill="white" transform="translate(10 28)"/>
</clipPath>
</defs>
</svg>
