<svg width="80" height="80" viewBox="0 0 80 80" fill="none" xmlns="http://www.w3.org/2000/svg">
<circle cx="40" cy="40" r="40" fill="#873EAF"/>
<g clip-path="url(#clip0_2002_11)">
<path d="M40 10C23.4321 10 10 23.4321 10 40C10 52.716 17.9012 63.5802 29.0617 67.9506C28.7901 65.5802 28.5679 61.9259 29.1605 59.3333C29.7037 56.9877 32.6667 44.4198 32.6667 44.4198C32.6667 44.4198 31.7778 42.6173 31.7778 39.9753C31.7778 35.8025 34.1975 32.6914 37.2099 32.6914C39.7778 32.6914 41.0123 34.6173 41.0123 36.9136C41.0123 39.4815 39.3827 43.3333 38.5185 46.9136C37.8025 49.9012 40.0247 52.3457 42.963 52.3457C48.2963 52.3457 52.3951 46.716 52.3951 38.6173C52.3951 31.4321 47.2346 26.4198 39.8519 26.4198C31.3086 26.4198 26.2963 32.8148 26.2963 39.4321C26.2963 42 27.2839 44.7654 28.5185 46.2716C28.7654 46.5679 28.7901 46.8395 28.716 47.1358C28.4938 48.0741 27.9753 50.1235 27.8765 50.5432C27.7531 51.0864 27.4321 51.2099 26.8642 50.9383C23.1111 49.1852 20.7654 43.7284 20.7654 39.3086C20.7654 29.8519 27.6296 21.1605 40.5926 21.1605C50.9877 21.1605 59.0864 28.5679 59.0864 38.4938C59.0864 48.8395 52.5679 57.1605 43.5309 57.1605C40.4938 57.1605 37.6296 55.5802 36.6667 53.7037C36.6667 53.7037 35.1605 59.4321 34.7901 60.8395C34.1235 63.4568 32.2963 66.716 31.0617 68.716C33.8765 69.5802 36.8395 70.0494 39.9506 70.0494C56.5185 70.0494 69.9506 56.6173 69.9506 40.0494C70 23.4321 56.5679 10 40 10Z" fill="#F8F9FF"/>
</g>
<defs>
<clipPath id="clip0_2002_11">
<rect width="60" height="60" fill="white" transform="translate(10 10)"/>
</clipPath>
</defs>
</svg>
