<svg width="80" height="80" viewBox="0 0 80 80" fill="none" xmlns="http://www.w3.org/2000/svg">
<circle cx="40" cy="40" r="40" fill="#873EAF"/>
<g clip-path="url(#clip0_2002_37)">
<path fill-rule="evenodd" clip-rule="evenodd" d="M46.4836 58.5829C46.2701 58.2105 46.4302 57.5721 45.8432 57.5721C45.4697 57.5721 45.4163 57.8913 45.363 58.1573C44.5626 57.8913 43.8689 57.7849 43.2285 57.7849C42.8016 57.7849 42.4281 57.8381 42.0546 57.9445C41.8411 57.5721 40.8806 56.8273 40.0802 56.5613C39.76 58.3169 38.2125 59.647 35.9179 59.8598C35.8112 60.977 34.9041 61.2962 34.2104 61.2962C33.7301 61.2962 32.9297 61.1366 32.8763 60.9238C32.6095 59.2746 31.3822 58.3701 30.7952 58.1573C30.7952 58.3169 30.8486 58.5297 30.8486 58.6893C30.8486 60.0726 29.8881 60.9238 28.1271 60.9238C27.8603 60.9238 27.4868 60.9238 27.22 60.8706C29.2477 63.1051 30.6885 62.3071 31.5956 62.7327C32.823 63.2647 33.8368 65.0203 37.7856 65.0203C39.2264 65.0203 40.6671 64.4351 41.6277 63.8499C41.7877 64.4351 42.3747 64.9671 43.3886 64.9671C45.0428 64.9671 46.0033 64.4351 46.0033 64.0095C46.0033 63.9031 46.0033 63.7435 45.6832 63.7435C45.4163 63.7435 45.4163 63.7967 44.5092 63.7967C43.442 63.7967 41.7344 63.3711 40.934 61.509C40.7739 61.1898 40.5604 61.1898 40.5071 61.1898C39.9734 61.1898 39.1197 63.1051 35.7579 63.1051C34.3171 63.1051 33.6767 62.5731 33.6767 62.4667C33.6767 62.4667 33.6767 62.4135 33.7301 62.4135C33.8902 62.4135 34.3705 62.4667 35.0108 62.4667C37.1453 62.4667 38.8528 61.4558 39.9201 60.3386C40.2936 59.913 40.4537 59.8598 40.7739 59.8598C41.0407 59.8598 41.3075 60.0726 41.4676 60.445C41.9478 61.6686 43.0684 62.6795 44.2424 62.6795C45.8432 62.6795 45.8966 59.913 46.2701 59.7534C46.3235 59.7534 46.4302 59.8066 46.4836 59.8066C46.697 59.8066 46.9638 59.647 46.9638 59.3278C47.0172 58.9022 46.5369 58.7958 46.4836 58.5829ZM43.8155 60.6578C43.3886 60.6578 43.0684 60.3386 43.0684 59.913C43.0684 59.4874 43.3886 59.115 43.8155 59.115C44.2424 59.115 44.5626 59.4874 44.5626 59.8598C44.6159 60.3386 44.2424 60.6578 43.8155 60.6578Z" fill="white"/>
<path fill-rule="evenodd" clip-rule="evenodd" d="M38.2658 53.2628C38.6394 53.2628 38.7994 53.582 38.8528 53.9012C38.9595 53.7948 39.1196 53.7416 39.2797 53.7416C39.6532 53.7416 39.8667 54.0076 39.8667 54.3269C39.8667 54.5397 39.76 54.6993 39.5999 54.8057C39.8133 54.9121 39.9734 55.0717 39.9734 55.2845C39.9734 55.5505 39.76 55.7633 39.4398 55.7633C39.173 55.7633 38.9595 55.4441 38.6927 55.4441C38.5326 55.4441 38.3192 55.4973 38.2658 55.6037C38.3725 55.8697 38.4259 56.0825 38.4259 56.3485C38.4259 57.7318 36.5582 58.849 34.5839 58.849C32.6628 58.849 31.9158 57.7318 31.9158 57.2529C31.9158 57.1465 31.9691 57.0933 32.1292 57.0933C32.4494 57.0933 32.5028 57.1997 33.4099 57.1997C35.491 57.1997 34.7439 54.5397 36.7183 54.5397C36.9851 54.5397 37.5721 54.6993 37.7856 55.0717C37.9457 54.9121 37.999 54.6993 37.999 54.5397C37.999 54.2204 37.7856 54.0076 37.7856 53.7416C37.7856 53.4756 37.999 53.316 38.2658 53.2628Z" fill="white"/>
<path fill-rule="evenodd" clip-rule="evenodd" d="M25.8859 51.8796C28.2338 51.8796 30.0481 53.8481 30.0481 56.6678C30.0481 57.9446 29.3544 59.8067 26.5263 59.8067C23.1645 59.8067 21.1367 56.987 21.1367 55.1781C21.1367 53.6353 22.1506 52.6777 22.7909 52.5181C22.0972 55.2845 23.6447 57.9446 26.7397 57.9446C28.2872 57.9446 29.0343 57.1998 29.0343 55.8698C29.0343 54.3801 28.0204 52.9437 26.2595 52.9437C25.4057 52.9437 24.7653 53.4225 24.7653 54.1141C24.7653 55.2313 25.7258 55.923 26.7397 55.923C27.38 55.923 27.8069 55.657 27.8069 55.2313C27.8069 55.1781 27.8069 55.0717 27.7536 55.0185C27.7002 55.0717 27.5401 55.0717 27.3267 55.0717C26.5263 55.0717 25.8859 54.6461 25.8859 54.1673C25.8859 53.7949 26.1527 53.5821 26.4729 53.5821C27.6469 53.5821 28.4473 54.7525 28.4473 55.6038C28.4473 56.455 27.8069 57.1998 26.7397 57.1998C24.4452 57.1998 23.4313 55.3377 23.4313 54.1141C23.4846 52.7841 24.6052 51.8796 25.8859 51.8796Z" fill="white"/>
<path fill-rule="evenodd" clip-rule="evenodd" d="M54.0075 58.1573C53.5272 58.5298 52.3533 59.381 50.3789 59.381C49.3116 59.381 48.8848 59.0618 48.7247 59.0618C48.5112 59.0618 48.2978 59.2746 48.0843 59.4874C47.6041 60.0194 47.0171 60.977 47.0171 62.0943C47.0171 62.8391 47.6041 63.5839 48.7247 63.5839C52.3533 63.5839 55.0214 61.3494 55.0214 59.5938C55.0747 58.583 54.4344 58.1573 54.0075 58.1573ZM52.1398 61.6155L50.0587 62.2007C50.2188 61.7751 50.3255 61.2962 50.3255 60.8174C50.3255 60.6578 50.3255 60.5514 50.2722 60.3918H50.539C52.0865 60.3918 52.7268 59.8066 52.8335 59.8066C52.9403 59.8066 53.047 59.8598 53.047 60.179C53.047 60.6046 52.8335 61.1898 52.1398 61.6155Z" fill="white"/>
<path fill-rule="evenodd" clip-rule="evenodd" d="M50.9126 58.583C51.7664 58.583 52.5134 58.3702 52.9937 57.9446C53.1538 57.8382 53.2071 57.6254 53.2071 57.4126V56.987C53.2071 56.455 52.3534 56.1357 51.1794 56.1357C49.792 56.1357 49.0449 56.7742 49.0449 57.0402V57.8914C49.0449 58.2106 49.8454 58.583 50.9126 58.583Z" fill="white"/>
<path fill-rule="evenodd" clip-rule="evenodd" d="M57.4226 49.5387C54.5945 49.5387 55.3415 51.9328 52.0331 52.6776C51.4461 52.784 51.2327 52.9968 51.2327 53.2628C51.2327 53.7416 51.4995 54.38 51.873 54.38C53.3138 54.38 55.5016 51.454 55.9285 51.454C56.0886 51.454 56.2487 51.454 56.2487 51.8796C56.2487 52.9436 53.1537 54.3268 53.1537 55.0717C53.1537 55.4973 54.2209 56.4549 55.3415 56.4549C56.889 56.4549 58.2764 53.3692 58.5966 53.3692C58.8634 53.3692 58.9168 53.5288 58.9168 53.7416C58.9168 54.5929 57.8495 56.2421 56.0352 56.9337C55.6617 57.0933 55.6083 57.2529 55.6083 57.3593C55.6083 57.785 56.0886 58.3702 56.5155 58.3702C57.0491 58.3702 60.6243 55.2845 60.6243 52.8372C60.7311 50.5495 58.9701 49.5387 57.4226 49.5387ZM58.7033 52.1988C58.4899 52.1988 58.2764 52.1456 58.1697 52.0392C57.9029 51.9328 57.476 51.5604 57.476 51.0283C57.476 50.4963 57.7428 50.3367 58.0096 50.3367C58.81 50.3367 59.7172 51.0283 59.7172 51.6136C59.7172 52.0924 59.2903 52.1988 58.7033 52.1988Z" fill="white"/>
<path fill-rule="evenodd" clip-rule="evenodd" d="M32.0223 53.4756H31.5421C31.382 53.4756 31.1152 53.4224 30.9551 53.316C30.6349 53.05 30.5282 51.6136 29.9946 50.7623C29.3542 49.8047 28.6605 49.5387 27.7534 49.5387C27.113 49.5387 26.366 49.9111 26.366 50.4431C26.366 50.7623 26.5261 50.9751 27.7534 51.2943C29.3009 51.6668 30.0479 52.518 30.208 53.4756C30.3681 54.4332 30.5282 55.1781 30.9017 55.5505C31.382 56.0825 32.2891 56.5613 33.1429 56.5613C33.8366 56.5613 34.3702 56.3485 34.3702 55.7101C34.3169 55.0185 33.3564 53.4756 32.0223 53.4756ZM33.0362 55.5505C32.4492 55.5505 31.5954 54.9653 31.5954 54.5929C31.5954 54.3268 31.8622 54.1672 32.0757 54.1672C32.5559 54.1672 33.4097 54.7525 33.4097 55.2313C33.4097 55.3909 33.303 55.5505 33.0362 55.5505Z" fill="white"/>
<path fill-rule="evenodd" clip-rule="evenodd" d="M43.6553 51.5071C43.2817 51.5071 43.2817 52.0924 43.2817 52.3052C43.2817 52.518 43.2817 52.5712 43.1217 52.5712C42.9616 52.5712 42.8549 52.518 42.6948 52.518C42.588 52.518 42.4813 52.6244 42.4813 52.784C42.4813 53.582 43.4952 54.2204 44.5091 54.2204C45.8431 54.2204 46.4835 53.6352 46.857 53.6352C47.0171 53.6352 47.0704 53.7948 47.0704 53.9012C47.0704 54.114 46.857 54.38 46.857 54.4864C46.857 54.8056 47.4973 54.5396 47.4973 54.912C47.4973 55.3909 46.6969 55.7633 45.4696 55.7633C43.0683 55.7633 41.5208 54.114 41.5208 52.5712C41.5208 49.6983 44.6158 50.6027 44.6158 49.4855C44.6158 49.1131 44.2423 48.9002 43.9755 48.9002C44.2956 48.4746 44.7225 48.4214 45.1494 48.4214C45.4696 48.4214 45.7898 48.4746 46.0566 48.4746C46.4301 48.4746 46.8036 48.315 46.8036 47.8894C46.8036 47.6234 46.5902 47.3042 45.683 47.1978C45.7898 46.6126 47.0171 46.9318 47.0171 46.3998C47.0171 46.0274 46.3234 45.7614 45.4696 45.7614C42.1612 45.7614 39.8132 48.4746 39.8132 51.4007C39.8132 54.0608 41.7343 56.9869 45.3095 56.9869C48.778 56.9869 50.4322 54.1672 50.4322 52.0391C49.7919 52.6244 48.0843 52.784 47.2305 52.784C44.7225 52.8372 44.0288 51.5071 43.6553 51.5071Z" fill="white"/>
<path fill-rule="evenodd" clip-rule="evenodd" d="M46.3768 51.8795C46.9104 51.8795 47.2839 51.4539 47.2839 50.9751C47.2839 50.2302 46.5369 49.5386 45.4163 49.5386C45.6297 49.7514 45.6831 49.911 45.6831 50.1238C45.6831 50.3898 45.523 50.7091 45.523 51.0283C45.523 51.5071 45.8432 51.8795 46.3768 51.8795ZM51.7663 48.2618C51.9264 48.4746 51.9798 48.6874 51.9798 48.9002C51.9798 49.4322 51.6062 49.9642 51.6062 50.4962C51.6062 51.1347 52.0865 51.6667 52.8336 51.6667C53.634 51.6667 54.1676 51.0283 54.1676 50.2834C54.1142 49.2194 53.2071 48.3682 51.7663 48.2618ZM47.9243 46.2401C48.1911 46.5593 48.2978 46.8785 48.2978 47.2509C48.2978 48.1022 47.6575 48.9534 47.6575 49.7514C47.6575 50.8155 48.3512 51.5071 49.365 51.5071C50.4323 51.5071 51.0726 50.6027 51.0726 49.5918C51.0726 48.1554 49.952 46.6125 47.9243 46.2401ZM49.4184 49.2726C49.1516 49.2726 48.9381 49.0598 48.9381 48.7938C48.9381 48.6342 49.0449 48.4214 49.0449 48.2086C49.0982 47.9426 49.0449 47.7298 49.2049 47.7298C49.5251 47.7298 49.8987 48.315 49.8987 48.6874C49.8987 49.0066 49.7386 49.2726 49.4184 49.2726Z" fill="white"/>
<path fill-rule="evenodd" clip-rule="evenodd" d="M37.0917 46.985C36.2379 46.6658 35.8644 46.187 35.6509 45.1761C35.2241 45.7614 35.0106 46.2934 35.0106 46.6126C35.0106 47.8894 36.7715 47.8894 36.7715 48.7407C36.7715 49.2195 35.8644 49.7515 34.6904 49.7515C33.3564 49.7515 32.3959 49.5387 31.5421 48.6875C31.3286 48.4747 31.2219 48.2618 30.9551 48.2618C30.6349 48.2618 30.4749 48.7939 30.4749 49.3259C30.4749 51.1347 32.2358 53.316 34.6904 53.316C37.7321 53.316 38.9594 51.2411 38.9594 49.5387C39.0127 48.5279 38.7993 47.6234 37.0917 46.985ZM36.2379 52.0924C35.9711 52.0924 35.9178 51.986 35.9178 51.72C35.9178 51.5603 35.9711 51.2411 35.9711 50.9751C35.9711 50.3367 36.2379 50.3899 36.8783 50.0707C37.3585 49.8579 37.5186 49.5919 37.6787 49.5919C37.8388 49.5919 37.9989 49.6983 37.9989 49.9643C37.9989 50.9219 36.9316 52.0924 36.2379 52.0924Z" fill="white"/>
<path fill-rule="evenodd" clip-rule="evenodd" d="M33.1962 43.8993C32.876 43.8993 32.3424 43.5801 31.8088 43.1545C31.2218 43.7397 30.7949 44.5377 30.7949 45.4422C30.7949 47.3042 32.7693 48.8471 34.6903 48.8471C35.0105 48.8471 35.3307 48.7939 35.6508 48.7407C34.5836 48.6343 33.9433 47.8362 33.9433 46.8786C33.9433 45.655 35.3307 44.5377 35.3307 43.5801C35.3307 42.4097 33.8899 42.3033 33.8899 41.3456C33.8899 40.5476 35.2773 39.9624 35.224 38.6855C35.224 37.9407 34.4769 37.0363 33.463 36.5043C33.6231 36.8235 33.7298 37.2491 33.7298 37.5151C33.7298 39.0048 30.8483 39.6432 30.8483 40.8136C30.8483 42.3033 33.6231 42.8885 33.6231 43.5801C33.6231 43.7397 33.5164 43.8993 33.1962 43.8993Z" fill="white"/>
<path fill-rule="evenodd" clip-rule="evenodd" d="M62.2786 44.8569C63.2391 44.8569 63.9862 46.0806 63.9862 47.517C63.9862 49.0599 63.2391 50.7091 61.9584 51.8796C61.9584 49.3259 58.8101 50.1239 58.8101 48.2618C58.8101 47.4638 59.397 46.9318 60.0907 46.9318C60.6777 46.9318 61.158 47.0914 61.5315 47.4638C61.2113 47.1446 60.9979 46.6658 60.9979 46.2402C60.9979 45.5486 61.4248 44.8569 62.2786 44.8569Z" fill="white"/>
<path fill-rule="evenodd" clip-rule="evenodd" d="M24.4985 47.4638C24.2317 47.517 24.0182 47.5702 23.8581 47.7299C23.6981 47.1446 23.1644 46.6126 22.4174 46.7722C21.777 46.8786 21.2968 47.4638 21.4035 48.2087C21.4035 48.3151 21.4569 48.4747 21.5102 48.5811C21.5102 48.5811 21.4035 48.5811 21.2968 48.6343C20.7632 48.7407 20.1228 49.2727 20.2295 50.0707C20.3363 50.7624 20.9232 51.2412 21.6169 51.188C21.8838 51.1348 22.0972 51.0816 22.2573 50.9752C22.4174 51.6136 22.951 51.986 23.6447 51.9328C24.3384 51.8264 24.8187 51.2412 24.7653 50.5495C24.7653 50.3367 24.7119 50.2303 24.6586 50.1239H24.8187C25.5124 49.9643 25.9926 49.4323 25.9393 48.7407C25.7258 47.8895 25.1388 47.3574 24.4985 47.4638ZM23.1111 50.0707C22.6842 50.1239 22.364 49.8047 22.3106 49.4323C22.2573 49.0067 22.5241 48.6343 22.951 48.5811C23.3779 48.5279 23.6981 48.8471 23.7514 49.2195C23.8048 49.6451 23.538 50.0175 23.1111 50.0707Z" fill="white"/>
<path fill-rule="evenodd" clip-rule="evenodd" d="M59.0768 44.2717C59.0768 44.0057 59.7172 43.3672 59.7172 43.1544C59.7172 43.1012 59.6638 43.048 59.6104 43.048C59.3436 43.048 58.4365 43.7397 57.1024 43.7397C56.5688 43.7397 56.1953 43.6865 56.1953 43.2608C56.1953 42.8884 56.5154 42.5692 57.0491 42.3564C57.636 42.0904 58.81 42.0904 58.81 41.8244C58.81 41.6116 57.6894 41.6116 57.6894 41.3988C57.6894 41.1328 58.1163 40.4944 58.1163 40.2283C58.1163 40.2283 58.1163 40.1219 58.0629 40.1219C57.8495 40.1219 57.3159 40.7604 56.9957 40.7604C56.6755 40.7604 56.4087 39.9623 56.1419 39.9623C56.0886 39.9623 55.9818 40.0155 55.9818 40.1751C55.9818 40.4944 56.1419 41.0796 56.1419 41.8776C56.1419 42.5692 55.7684 43.1544 55.3948 43.1544C54.9146 43.1544 54.7545 42.5692 54.7545 42.0904C54.7545 41.3988 55.128 40.6008 55.128 39.8559C55.128 39.6963 55.0747 39.6431 54.968 39.6431C54.7011 39.6431 54.2743 40.4412 53.9541 40.4412C53.7406 40.4412 53.3671 39.4835 53.0469 39.4835C52.9936 39.4835 52.9402 39.6431 52.9402 39.8559C52.9402 40.1219 52.9936 40.4944 52.9936 40.654C52.9936 40.8668 52.7268 40.92 52.4066 40.92C52.1931 40.92 51.7662 40.92 51.7662 41.0796C51.7662 41.2392 52.1931 41.3988 52.5667 41.6648C53.2604 42.1436 54.381 42.6224 54.381 43.7397C54.381 44.7505 52.9402 45.4421 51.9263 45.6549C51.4461 45.7081 50.9658 45.8145 50.9658 45.9741C50.9658 46.1869 52.2465 46.2401 52.2465 46.5061C52.2465 46.6657 51.6595 47.4106 51.6595 47.6234C51.6595 47.6766 51.7129 47.6766 51.7129 47.6766C51.9263 47.6766 52.5667 47.1446 52.8335 47.1446C53.207 47.1446 53.1537 48.2618 53.4205 48.2618C53.7406 48.2618 53.6339 46.6125 53.7406 46.1869C53.9541 45.4421 54.4877 44.6973 54.968 44.6973C55.5549 44.6973 55.6083 45.7081 55.6083 46.1869C55.6083 47.1446 54.9146 48.1554 54.9146 48.6342C54.9146 48.6874 54.968 48.7406 55.0213 48.7406C55.2348 48.7406 55.715 48.1022 55.9818 48.1022C56.2486 48.1022 56.8356 49.1662 57.0491 49.1662C57.1558 49.1662 57.2091 49.0598 57.2091 48.9534C57.2091 48.6342 57.0491 48.1022 57.0491 47.783C57.0491 47.4106 58.2764 47.6234 58.2764 47.3574C58.2764 47.251 57.7428 47.0382 57.4226 46.8254C56.7289 46.3997 55.9285 45.4953 55.9285 44.7505C55.9285 44.4845 56.0886 44.2717 56.302 44.2717C57.7961 44.2717 58.4365 46.5593 58.7033 46.5593C58.9701 46.5593 58.81 45.5485 58.9167 45.3889C58.9701 45.3357 59.1302 45.2825 59.2903 45.2825C59.5571 45.2825 59.8772 45.3357 60.0907 45.3357C60.2508 45.3357 60.3041 45.3357 60.3041 45.2825C60.2508 44.9633 59.0768 44.5909 59.0768 44.2717Z" fill="white"/>
<path fill-rule="evenodd" clip-rule="evenodd" d="M53.1537 43.6333C53.1537 43.1545 51.0726 41.5584 50.6457 41.5584C50.539 41.5584 50.4857 41.6116 50.4857 41.718C50.4857 41.8776 50.539 42.0904 50.539 42.2501C50.539 42.6225 50.3789 42.6757 50.0054 42.6757C49.5785 42.6757 48.8848 42.5161 48.8848 41.8244C48.8848 40.4944 51.4462 40.8136 51.713 39.59C50.5924 39.59 50.0588 38.8451 49.3117 38.8451C49.0449 38.8451 48.5113 39.0048 48.5113 39.6964C48.5113 39.9092 48.5646 40.2816 48.5646 40.6008C48.5646 40.92 48.5113 41.1328 48.1377 41.1328C47.8176 41.1328 47.7642 40.7604 47.7642 40.3348C47.7642 39.9624 47.8176 39.5368 47.8176 39.2708C47.8176 37.3023 45.6297 38.1003 45.4163 36.5043C44.8827 37.4619 44.7226 38.1535 44.7226 38.7387C44.7226 40.8136 47.5508 40.6008 47.5508 42.0372C47.5508 42.4097 47.2839 42.6225 47.0171 42.6225C46.5369 42.6225 46.2167 41.6116 45.4696 41.6116C45.0961 41.6116 44.8293 41.8776 44.8293 42.4629C44.8293 42.8885 44.936 43.2077 44.936 43.6333C44.936 44.4845 44.5625 44.8569 44.189 45.2293C46.7503 45.0165 46.9104 43.1013 47.6575 43.1013C47.8709 43.1013 47.9777 43.2609 47.9777 43.3673C47.9777 43.6865 47.444 44.2185 47.444 44.7505C47.444 45.4422 48.2445 45.8146 48.7781 45.8146C49.4184 45.8146 49.6319 45.6018 49.6319 45.1761C49.6319 44.6973 48.7781 44.0589 48.7781 43.5269C48.7781 43.2609 49.0449 43.2077 49.4184 43.2077C50.2188 43.2077 50.4857 43.3141 50.4857 43.4737C50.4857 43.6865 50.1655 44.1121 50.1655 44.2185C50.1655 44.2717 50.2188 44.4313 50.3789 44.4313C50.9659 44.5377 53.1537 44.0589 53.1537 43.6333Z" fill="white"/>
<path fill-rule="evenodd" clip-rule="evenodd" d="M26.2061 36.451C25.8325 37.1427 25.7258 38.0471 25.7258 38.5791C25.7258 41.8244 29.6212 44.8569 29.6212 46.8786C29.6212 47.6766 29.0342 48.6342 27.967 48.6342C27.0065 48.6342 26.4729 47.8894 26.4729 47.251C26.4729 46.7722 26.793 46.3466 26.9531 46.3466C27.0065 46.3466 27.0065 46.3998 27.0065 46.5062C27.0065 46.7722 27.2199 47.1446 27.6468 47.0914C28.0737 47.0914 28.2872 46.8254 28.2872 46.453C28.2872 44.8569 25.0855 42.0904 25.0855 38.3131C24.9254 38.7387 24.7119 39.2707 24.7119 40.0688C24.7119 41.8776 26.046 43.7929 26.046 45.5485C26.046 46.2402 25.5124 46.8786 24.8186 46.8786C24.0182 46.8786 23.7514 46.2402 23.7514 45.8677C23.7514 45.6017 23.8581 45.3357 23.9649 45.3357C24.0716 45.3357 24.0182 45.7613 24.4451 45.7613C24.9254 45.7613 25.0855 45.4421 25.0855 44.8569C25.0855 43.2609 24.1783 42.1436 24.1783 40.4944C24.1783 40.2284 24.1783 39.9624 24.2317 39.7496C23.7514 40.3348 23.6981 41.186 23.6981 41.9308V43.8993C23.6981 45.2293 23.0577 45.8145 22.2573 45.8145C21.7237 45.8145 21.2434 45.3889 21.2434 44.6973C21.2434 44.5909 21.2968 44.2717 21.4035 44.2717C21.5636 44.2717 21.6703 44.6973 22.0972 44.6973C22.951 44.6973 23.0043 43.8993 23.0043 42.25C22.8976 40.2284 23.6447 38.0471 26.2061 36.451Z" fill="white"/>
<path fill-rule="evenodd" clip-rule="evenodd" d="M20.9233 35.4935C21.1901 35.4935 21.2968 35.7595 21.2968 35.9723C21.2968 36.8768 20.1228 39.5369 20.1228 40.2817C20.1228 40.3881 20.1762 40.4945 20.2829 40.4945C20.7632 40.4945 21.7237 38.4196 22.0439 37.4088C22.2039 36.8768 22.4708 36.6108 22.6842 36.6108C22.8977 36.6108 23.0577 36.8236 23.0577 37.2492C23.0577 38.26 22.0972 40.7073 21.2434 42.3033C20.6031 43.5802 19.5359 45.389 19.5359 46.3999C19.5359 46.9319 19.6426 47.4639 20.3896 48.1023C19.1623 48.0491 18.6287 47.8895 18.1485 46.9851C16.0673 51.0284 21.9905 50.656 19.9628 54.2737C19.5892 53.6353 16.6543 52.9437 16.6543 49.1664C16.6543 45.9211 19.5892 44.0058 19.5892 42.6226C19.5892 42.3565 19.4825 42.1437 19.2157 41.9309C18.5753 41.3989 18.5753 40.9733 18.0417 40.9733C17.6682 40.9733 17.2413 41.8245 17.6682 42.5694C17.8283 42.8354 17.935 42.995 17.935 43.2078C17.935 43.7398 17.0812 45.1762 16.4942 45.1762C15.9073 45.1762 15.427 43.6866 15.427 41.3457C15.427 39.2708 15.9073 37.1428 16.4942 37.1428C16.6543 37.1428 16.7077 37.2492 16.7077 37.4088C16.7077 37.6748 16.6543 38.1536 16.6543 39.0048C16.6543 39.9093 16.8678 39.9625 17.0279 39.9625C17.6682 39.9625 17.5615 35.9723 18.6287 35.9723C18.8955 35.9723 18.9489 36.2384 18.9489 36.5044C18.9489 37.4088 18.522 38.7388 18.522 39.4305C18.522 39.8029 18.6287 39.9093 18.7888 39.9093C19.3224 39.8561 20.1228 35.4935 20.9233 35.4935Z" fill="white"/>
<path fill-rule="evenodd" clip-rule="evenodd" d="M64.3063 40.7073C63.3991 40.7073 62.9189 42.3033 62.0117 42.3565C62.5453 40.0689 64.8399 38.8452 64.8399 36.7172C64.8399 34.2699 62.8122 33.4186 61.9584 32.8866C60.571 30.865 59.5571 29.2689 57.2625 29.2689C56.302 29.2689 55.6617 29.4285 55.0213 29.4285C53.7406 29.4285 53.3138 28.9497 53.2604 28.9497C53.2604 28.9497 53.207 28.9497 53.207 29.0561C53.207 30.865 54.1675 34.9083 58.223 34.9083C60.4109 34.9083 61.318 34.0571 61.8516 34.0571C62.3853 34.0571 64.1462 34.6423 64.1462 36.7172C64.1462 37.8344 63.2391 39.0048 62.9189 39.0048C62.5987 39.0048 62.2785 38.4728 62.2785 37.9408C62.2785 37.3556 62.5987 36.2383 62.5987 35.5467C62.5987 35.2807 62.5453 35.1743 62.3853 35.1743C62.0651 35.1743 60.4109 36.2383 60.4109 37.5152C60.4109 38.6324 62.0651 39.324 62.7054 39.6432C62.0651 40.6541 61.6916 41.3457 61.4247 42.3033C61.4247 41.5585 60.731 40.1221 60.5176 39.4836C59.5037 36.6107 59.1302 36.0787 56.9424 35.8127C57.2625 36.9832 60.9979 39.7496 60.9979 42.5693C60.9979 42.7289 60.9979 42.9949 60.9445 43.1014C59.8239 39.8028 57.9029 39.0048 57.2092 38.2068C56.0886 36.93 56.7289 35.7063 54.9146 35.0147C55.0213 35.1743 55.0747 35.3871 55.0747 35.5467C55.0747 36.1851 54.7545 36.93 54.7545 37.462C54.7545 39.4836 57.0491 38.8452 58.4365 39.9625C59.7705 41.0265 60.5176 42.7821 61.0512 44.7506C61.5848 43.8994 61.905 42.8353 62.8122 42.8353C63.3991 42.8353 63.6126 43.5802 63.6126 44.1654V44.4314C64.5197 43.6334 65 42.3565 65 41.5053C64.9466 41.0797 64.7332 40.7073 64.3063 40.7073ZM60.6777 33.2058C60.4642 33.2058 60.1441 33.0994 59.8773 33.0994C59.2369 33.0994 58.7567 34.0039 58.4365 34.0039C58.3298 34.0039 58.2764 33.8975 58.2764 33.7911C58.2764 33.4186 58.9167 32.993 58.9167 32.727C58.9167 32.5674 58.6499 32.5142 58.5432 32.5142C57.9029 32.5142 56.9957 33.4186 56.4621 33.4186C56.3554 33.4186 56.2487 33.3654 56.2487 33.259C56.2487 32.993 56.9424 32.6738 56.9424 32.4078C56.9424 32.1418 56.6755 32.1418 56.4621 32.1418C56.1419 32.1418 55.5016 32.3014 55.1281 32.3014C54.9146 32.3014 54.7545 32.2482 54.7545 32.0886C54.7545 31.7162 55.9818 31.929 55.9818 31.5034C55.9818 31.2906 55.6083 30.865 55.6083 30.6522C55.6083 30.5458 55.715 30.4926 55.8218 30.4926C56.2487 30.4926 56.7289 31.7162 57.2092 31.7162C57.4226 31.7162 57.476 31.5566 57.476 31.2906C57.476 31.0246 57.4226 30.9182 57.4226 30.7054C57.4226 30.4926 57.5293 30.4394 57.5827 30.4394C57.9029 30.4394 58.1697 32.1418 59.0768 32.1418C59.4504 32.1418 59.1836 31.0778 59.5571 31.0778C59.7705 31.0778 59.8239 31.397 59.8239 31.5566C59.9306 32.6738 60.9445 32.727 60.9445 33.1526C60.8911 33.0994 60.8378 33.2058 60.6777 33.2058Z" fill="white"/>
<path fill-rule="evenodd" clip-rule="evenodd" d="M47.9243 30.7054C48.3512 30.7054 48.6713 31.0246 48.6713 31.397C48.6713 31.7694 48.3512 32.0886 47.9243 32.0886C47.5507 32.0886 47.1772 31.7694 47.1772 31.397C47.1772 31.0246 47.5507 30.7054 47.9243 30.7054ZM52.8335 37.4088C52.46 37.4088 52.0865 37.728 52.0865 38.1004C52.0865 38.526 52.46 38.792 52.8335 38.792C53.2604 38.792 53.5806 38.4728 53.5806 38.0472C53.5806 37.6748 53.2604 37.4088 52.8335 37.4088ZM50.3789 36.0787C49.6318 36.0787 49.0449 36.6639 49.0449 37.3556C49.0449 38.0472 49.6318 38.6324 50.3789 38.6324C51.126 38.6324 51.7129 38.0472 51.7129 37.3556C51.7129 36.6639 51.126 36.0787 50.3789 36.0787ZM48.031 35.4935C47.6041 35.4935 47.2839 35.8127 47.2839 36.2383C47.2839 36.6639 47.6575 36.9832 48.031 36.9832C48.4579 36.9832 48.778 36.6639 48.778 36.2383C48.778 35.8127 48.4579 35.4935 48.031 35.4935ZM52.7268 36.6639C53.2071 36.6639 53.634 36.2915 53.634 35.8127C53.634 35.3339 53.2071 34.9615 52.7268 34.9615C52.2466 34.9615 51.8197 35.3339 51.8197 35.8127C51.8197 36.2383 52.2466 36.6639 52.7268 36.6639ZM45.7898 33.9507C45.2028 33.9507 44.6692 34.4295 44.6692 35.0147C44.6692 35.5999 45.1494 36.0787 45.7898 36.0787C46.3768 36.0787 46.9104 35.5999 46.9104 35.0147C46.857 34.4295 46.3768 33.9507 45.7898 33.9507ZM49.7919 34.7487C49.7919 35.1743 50.1121 35.4935 50.539 35.4935C50.9659 35.4935 51.2861 35.1743 51.2861 34.7487C51.2861 34.3231 50.9659 34.0039 50.539 34.0039C50.1121 34.0039 49.7919 34.3763 49.7919 34.7487ZM48.2978 34.9615C48.9381 34.9615 49.4718 34.4827 49.4718 33.8443C49.4718 33.2058 48.9381 32.727 48.2978 32.727C47.6575 32.727 47.1238 33.2058 47.1238 33.8443C47.1238 34.4295 47.6041 34.9615 48.2978 34.9615ZM52.5667 34.2167C52.9936 34.2167 53.3672 33.8443 53.3672 33.4186C53.3672 32.993 52.9936 32.6206 52.5667 32.6738C52.1398 32.6738 51.7663 33.0462 51.7663 33.4718C51.7663 33.8975 52.1398 34.2167 52.5667 34.2167ZM46.11 33.1526C46.5369 33.1526 46.857 32.8334 46.857 32.4078C46.857 31.9822 46.5369 31.663 46.11 31.663C45.6831 31.663 45.3629 31.9822 45.3629 32.4078C45.3095 32.8334 45.6831 33.1526 46.11 33.1526ZM50.4856 33.0994C51.1793 33.0994 51.7129 32.5674 51.7129 31.929C51.7129 31.2906 51.1793 30.7586 50.4856 30.7586C49.7919 30.7586 49.2583 31.2906 49.2583 31.929C49.2583 32.5674 49.7919 33.0994 50.4856 33.0994ZM51.3928 30.333C51.8197 30.333 52.1398 30.0137 52.1398 29.6413C52.1398 29.2689 51.8197 28.9497 51.3928 28.9497C50.9659 28.9497 50.6457 29.2689 50.6457 29.6413C50.6991 30.0669 51.0192 30.333 51.3928 30.333Z" fill="white"/>
<path fill-rule="evenodd" clip-rule="evenodd" d="M29.8345 31.2906C30.3148 31.2906 31.1686 32.0886 31.382 32.9398C31.2753 32.9398 31.1686 32.8866 31.1152 32.8866C30.4749 32.8866 30.1547 33.4718 29.6744 34.4827C30.795 33.7378 31.8089 33.1526 32.9829 33.1526C33.9968 33.1526 34.7972 33.7378 34.7972 34.6423C34.7972 35.0147 34.5837 35.4403 34.3703 35.8659C34.2102 35.0147 33.5165 34.6423 32.2892 34.6423C31.5955 34.6423 30.7417 34.7487 30.048 35.0147C32.2358 35.3339 32.556 36.0787 32.556 36.7703C32.556 37.9408 31.3287 38.526 30.5282 38.8984C30.5816 38.5792 30.6883 38.2068 30.6883 37.8344C30.6883 37.1428 30.4215 36.2915 29.3009 35.5467C29.1408 36.2915 28.5005 36.7703 28.5005 37.3556C28.5005 37.5684 28.6606 37.6748 28.7673 37.6748C28.7673 37.994 28.6072 38.9516 28.6072 39.2176C28.6072 39.6964 28.7139 39.8028 28.9807 39.856C29.1408 40.2816 29.1408 41.0265 29.2476 41.3989C29.3009 41.6117 29.461 41.6649 29.6211 41.6649C29.7812 42.0373 29.9946 42.6225 30.3148 42.8353C30.3682 42.8885 30.4749 43.0481 30.4749 43.1545C30.4749 43.4737 29.9413 43.8462 29.6211 43.8462C29.5144 43.8462 29.3543 43.793 29.1942 43.4205C29.0875 43.1545 28.127 42.5693 28.0736 42.2501C28.127 42.1969 28.1803 42.0905 28.1803 41.9309C28.1803 41.3989 27.3265 40.8137 27.3265 39.9624C27.4333 39.9092 27.54 39.7496 27.54 39.59C27.54 39.1112 27.0597 38.2068 27.0597 37.5684C27.2732 37.5684 27.3799 37.5684 27.3799 37.2492C27.4333 36.6107 27.54 35.7063 28.127 35.1743C27.9669 35.1743 27.8068 35.1211 27.5933 35.1211C26.4194 35.1211 24.6584 35.7595 23.9647 37.2492C23.9114 37.0363 23.9114 36.8235 23.9114 36.6107C23.9114 35.3871 24.6584 34.5891 25.2454 34.3231C25.5122 34.2167 25.8858 34.1635 26.2593 34.1635C26.8996 34.1635 27.5933 34.2699 28.3404 34.4295C27.7001 33.5782 26.6862 32.993 25.8324 32.993C25.4589 32.993 25.1387 33.0994 25.032 33.4186C24.9786 33.259 24.9786 32.993 24.9786 32.7802C24.9786 31.8758 25.2988 31.3438 26.0992 31.3438C27.2732 31.3438 28.3404 32.727 28.9274 34.0039V33.8442C28.9274 32.0354 28.9807 31.131 29.7278 31.0778L29.8345 31.2906Z" fill="white"/>
<path fill-rule="evenodd" clip-rule="evenodd" d="M15 34.323C15 35.7595 15.4803 36.4511 16.2807 36.4511C16.921 36.4511 17.7748 36.0255 18.7887 35.1743C17.9883 35.3339 17.4013 35.4403 16.8677 35.4403C16.174 35.4403 15.587 35.1743 15 34.323ZM20.5496 32.3546C20.0694 32.461 19.1622 32.993 19.1622 33.9506C19.1622 34.6423 19.6958 35.0679 20.3895 35.0679C20.7631 35.0679 21.0299 35.0147 21.19 34.8551C20.6564 34.323 20.4429 33.791 20.4429 33.2058C20.4429 32.8334 20.4963 32.5674 20.5496 32.3546ZM22.2038 30.8117C21.7769 31.2906 21.2967 32.1418 21.2967 32.993C21.2967 34.0038 21.937 34.8551 22.9509 34.8551C23.9114 34.8551 24.3917 34.057 24.3917 33.259C24.445 31.9822 23.2177 31.0777 22.2038 30.8117ZM15.6937 32.6206V32.8866C15.6937 33.791 16.174 34.2698 16.8677 34.2698C17.3479 34.2698 17.9349 34.0038 18.4685 33.3654C18.2551 33.4186 17.9883 33.4186 17.7748 33.4186C16.9744 33.4718 16.174 33.259 15.6937 32.6206ZM19.6425 27.726C19.0021 27.726 18.2017 27.7792 17.3479 28.3113C15.6403 29.3753 15.8538 31.0777 15.587 31.5566C15.5336 31.6098 15.5336 31.663 15.5336 31.7694C15.5336 31.929 15.7471 32.1418 15.9072 32.1418C16.0672 32.1418 16.174 32.0886 16.2273 32.0886C16.7076 32.0886 17.2412 32.4078 18.0416 32.4078C18.5219 32.4078 19.0555 32.2482 19.6958 31.929C21.1366 31.2374 21.6702 29.5349 21.6702 29.2689C21.6702 28.8965 21.3501 28.9497 21.1366 28.6305C20.8698 28.3113 20.9765 27.9921 20.8164 27.8324C20.7097 27.726 20.4429 27.726 20.0694 27.726H19.6425ZM18.4685 31.5034C17.8282 31.5034 17.0811 30.7053 17.0811 30.0137C17.0811 29.6413 17.4013 29.1625 17.6147 29.1625C17.6681 29.1625 17.7215 29.2157 17.7748 29.3753C17.8815 30.2797 18.5219 30.8117 19.1089 31.0777C19.1622 31.1309 19.2156 31.1309 19.2156 31.1842C19.1622 31.3438 18.7887 31.5034 18.4685 31.5034ZM20.8164 29.7477C20.8164 30.0137 20.6564 30.3329 20.3362 30.3329C19.6425 30.3329 19.1089 29.3221 19.0555 28.7369C19.0555 28.3645 19.2689 28.3645 19.5891 28.3645C19.7492 28.3645 19.8026 28.3645 19.9093 28.4177C20.0694 28.5241 20.0694 28.8965 20.2828 29.1625C20.4429 29.3753 20.8164 29.5881 20.8164 29.7477ZM22.3106 28.8965C22.3106 29.3221 22.6841 29.6413 23.111 29.6413C23.5379 29.6413 23.9114 29.3221 23.9114 28.8965C23.9114 28.4709 23.5379 28.1517 23.111 28.1517C22.6841 28.0985 22.3106 28.4709 22.3106 28.8965ZM22.0438 27.9388C22.4707 27.9388 22.8442 27.6196 22.8442 27.194C22.8442 26.7684 22.4707 26.4492 22.0438 26.4492C21.6169 26.4492 21.2433 26.7684 21.2433 27.194C21.2967 27.5664 21.6169 27.9388 22.0438 27.9388ZM16.6542 27.5664C17.3479 27.5664 17.9349 27.1408 17.9349 27.1408C16.7609 26.8216 16.1206 26.0236 16.1206 24.9064V24.5871C15.3735 24.9064 15.0534 25.4916 15.0534 26.0768C15.1067 26.9812 15.8004 27.5664 16.6542 27.5664ZM20.1227 26.7152C20.2295 26.396 20.2828 26.0236 20.2828 25.598C20.2828 24.6935 19.8559 23.3103 18.4685 23.3103C17.6681 23.3103 17.1345 23.8955 17.1345 24.5871C17.1878 26.13 18.7887 26.7152 20.1227 26.7152Z" fill="white"/>
<path fill-rule="evenodd" clip-rule="evenodd" d="M63.986 26.2364C63.1322 27.9389 60.9977 28.3113 60.304 28.2049C60.5174 29.9605 63.1322 32.3014 63.8259 32.2482C64.3061 32.195 64.4662 29.9605 64.4662 28.2049C64.4662 27.194 64.5196 26.396 63.986 26.2364ZM64.0393 24.5872C64.0393 23.9487 63.7725 23.4699 63.0255 23.3635C63.1322 23.5231 63.1855 23.6827 63.1855 23.9487C63.1855 24.9596 61.6914 26.0768 60.0372 26.0768C59.4502 26.0768 59.2368 26.5024 59.2901 26.7152C59.2901 27.2472 59.7704 27.4601 60.4641 27.4601C62.3317 27.4069 64.0393 25.9172 64.0393 24.5872Z" fill="white"/>
<path fill-rule="evenodd" clip-rule="evenodd" d="M60.0373 25.3852C60.7843 25.3852 62.3852 24.7468 62.3852 23.8955C62.3852 23.6295 62.2785 23.3635 61.8516 23.3635C61.2646 23.3635 60.4642 23.9487 59.6637 23.9487C59.3969 23.9487 59.0768 23.9487 58.7566 23.8423C59.0768 24.0551 59.0234 24.5872 59.1835 24.9596C59.4503 25.3852 59.7705 25.3852 60.0373 25.3852Z" fill="white"/>
<path fill-rule="evenodd" clip-rule="evenodd" d="M50.0052 25.8108C50.0052 27.5132 48.8313 28.2049 47.764 28.2049C47.4972 28.2049 47.2838 28.1517 47.0703 28.0453C47.2838 27.8325 47.4972 27.5132 47.4972 27.3004C47.4972 27.1408 47.3905 27.0876 47.2304 27.0876C47.1237 27.0876 46.8569 27.1408 46.6434 27.1408C46.1098 27.1408 45.6829 26.928 45.2027 26.4492C44.8825 26.928 44.7224 27.5664 44.7224 28.2049C44.7224 29.2157 45.0959 30.2265 45.5228 30.2797C45.7363 30.2797 45.7363 29.5881 46.1098 29.5881C46.2165 29.5881 46.6434 29.9073 47.5506 29.9073C48.8846 29.9073 50.3788 29.1093 50.3788 27.0344C50.3254 26.7684 50.2187 26.13 50.0052 25.8108Z" fill="white"/>
<path fill-rule="evenodd" clip-rule="evenodd" d="M46.9637 24.7468C47.2305 24.7468 47.7641 24.8532 47.9242 25.1192C47.7107 25.2256 47.4973 25.4916 47.4973 25.7044C47.4973 25.8108 47.5507 25.9172 47.6574 25.9704C48.1376 26.1832 48.4044 26.5556 48.5645 26.8748C49.4183 26.396 49.7385 25.066 49.7385 24.3212C49.7385 24.1083 49.7385 23.7891 49.525 23.7891C49.365 23.7891 49.2049 24.0019 48.9914 24.0019C48.8313 24.0019 48.3511 23.3635 47.1771 23.3635C45.8431 23.3635 45.2561 24.3744 45.2561 25.2256C45.2561 25.4384 45.3095 25.7044 45.3628 25.864C45.6296 25.332 46.1633 24.7468 46.9637 24.7468Z" fill="white"/>
<path fill-rule="evenodd" clip-rule="evenodd" d="M33.4632 25.864C32.5027 25.864 31.6489 26.662 31.0085 27.7261C31.0619 27.5133 31.0619 27.3005 31.0619 27.0877C31.0619 25.598 30.2615 24.3212 28.8207 24.3212C27.6467 24.3212 26.5261 25.0128 26.0993 26.396C26.206 26.2896 26.6329 26.0236 26.953 26.0236C27.3266 26.0236 27.4333 26.3428 27.4333 26.8748C27.4333 27.1941 27.3799 27.6197 27.2198 27.9921C27.0064 28.6305 26.5795 28.7901 26.3661 28.7901C25.4589 28.7901 25.8858 27.2473 25.4055 27.2473C25.032 27.2473 24.9253 28.0985 24.9253 28.4177C24.9253 29.4817 25.619 30.599 27.1665 30.599C28.8207 30.599 29.7279 29.8009 30.6884 28.7901C30.9018 29.9073 31.4888 31.8758 33.143 31.8758C34.0502 31.8758 34.6905 31.131 34.7439 30.2266C34.6371 30.333 34.4771 30.4394 34.2636 30.4394C33.9434 30.4394 33.8367 29.9605 33.8367 29.5349C33.8367 28.8433 34.0502 28.0985 34.3703 28.0985C34.5304 28.0985 34.6371 28.2049 34.6905 28.7369C34.7439 29.1093 34.6905 29.5881 34.9573 29.5881C35.2241 29.5881 35.3308 28.7901 35.3308 28.3113C35.2775 26.928 34.6905 25.8108 33.4632 25.864ZM27.9669 29.4817C27.8068 29.4817 27.7535 29.3221 27.7535 29.2157C27.7535 28.4709 28.5539 25.1724 29.1409 25.1724C29.2476 25.1724 29.301 25.2788 29.301 25.4384C29.301 26.0236 28.6073 29.4817 27.9669 29.4817ZM30.4216 28.0453C29.9413 28.5773 29.6745 28.8433 29.461 28.8433C29.3543 28.8433 29.2476 28.6305 29.2476 28.4177C29.2476 28.0453 29.5144 26.5024 30.1014 26.5024C30.3148 26.5024 30.4749 26.928 30.4749 27.3005C30.4749 27.6197 30.4749 27.8325 30.4216 28.0453ZM31.5422 29.3753C31.3821 29.3753 31.222 29.0561 31.222 28.4177C31.5422 27.8857 31.7022 27.6729 31.9157 27.6729C31.969 27.6729 32.0758 27.7261 32.0758 28.0453C32.0224 28.7369 31.7556 29.3753 31.5422 29.3753ZM32.5027 30.4926C32.3959 30.4926 32.2892 30.333 32.2892 29.9073C32.2892 28.8965 32.9296 27.0345 33.3031 27.0345C33.4098 27.0345 33.4632 27.3005 33.4632 27.5665C33.5165 28.6837 32.9829 30.4926 32.5027 30.4926Z" fill="white"/>
<path fill-rule="evenodd" clip-rule="evenodd" d="M56.9957 23.6827C56.6222 23.6827 56.0352 24.1083 55.6083 24.1083C55.0213 24.1083 55.1814 23.3103 54.5411 23.3103C54.381 23.3103 54.2209 23.3635 54.0608 23.4699C52.7268 24.1615 51.6595 23.8955 51.4461 24.0551C51.3927 24.1083 51.3394 24.1083 51.3394 24.2679C51.3394 25.7576 52.8335 27.992 55.2881 27.992C56.9957 27.992 58.3831 27.4068 58.3831 26.396C58.3298 25.5448 57.5293 23.6827 56.9957 23.6827ZM55.4482 26.5556C54.0608 26.5556 53.207 25.7576 53.207 25.2788C53.207 25.2256 53.2604 25.1724 53.3137 25.1724C53.5272 25.1724 54.1142 25.4916 54.9146 25.598C55.8217 25.7576 56.302 25.7576 56.5688 25.7576C56.8356 25.7576 56.9423 25.8108 56.9423 25.9172C56.889 26.1832 56.2486 26.5556 55.4482 26.5556Z" fill="white"/>
<path fill-rule="evenodd" clip-rule="evenodd" d="M64.4663 14.7448C63.5058 14.7448 63.3991 14.4788 62.7588 14.4788C62.0117 14.4788 61.4781 15.0108 61.4781 15.8088C61.4781 16.0748 61.5848 16.5004 61.5848 17.0324C61.5848 17.6709 61.4781 18.3093 60.8911 18.3093C60.3575 18.3093 60.144 17.9369 60.144 17.5113C60.144 16.7664 60.5176 16.2344 60.5176 15.7556C60.5176 14.8512 59.4503 14.5852 58.2764 14.5852C56.889 14.5852 55.3948 14.9576 55.3948 15.1704C55.3948 15.4896 57.3692 15.2768 58.81 17.1388C57.9028 17.1388 56.1419 17.5645 56.1419 17.8305C56.1419 18.1497 59.3436 18.4689 59.3436 19.7989C59.3436 20.6502 58.6499 20.7566 58.3831 20.7566C57.3159 20.7566 56.7823 19.6393 56.5154 19.6393C56.4621 19.6393 56.3554 19.6925 56.3554 19.7989C56.3554 19.9585 56.5154 20.4373 56.5154 20.9162C56.5154 22.1398 55.1814 22.2462 55.1814 22.5122C55.1814 22.6186 55.2348 22.6186 55.3948 22.6718C56.3554 22.8314 57.3692 22.8846 58.2764 22.8846C61.6915 22.8846 64.413 21.8206 64.413 18.8413C64.413 17.192 63.8794 16.66 63.8794 15.862C63.7726 15.596 63.9861 15.0108 64.4663 14.7448ZM59.7171 21.2354H59.0234C61.2113 20.863 62.4386 19.5861 62.4386 17.8837C62.9189 18.0433 63.239 18.5221 63.239 19.0541C63.1857 20.0649 62.2785 21.2354 59.7171 21.2354ZM62.7588 16.0748C62.492 16.0748 62.2785 15.862 62.2785 15.596C62.2785 15.33 62.492 15.1172 62.7588 15.1172C63.0256 15.1172 63.239 15.33 63.239 15.596C63.239 15.862 63.0256 16.0748 62.7588 16.0748Z" fill="white"/>
<path fill-rule="evenodd" clip-rule="evenodd" d="M51.1793 14.1064C49.8986 14.1064 48.9381 14.7448 48.4045 14.7448C48.0843 14.7448 47.6575 14 47.3906 14C47.2839 14 47.1772 14.2128 47.1772 14.532V14.6384C47.1772 14.9044 47.1238 15.3832 46.9637 15.3832C46.4835 15.3832 44.6692 14.1064 44.6692 14.532C44.6692 14.9576 45.8965 16.2877 45.8965 16.6069C45.8965 16.9261 44.7226 17.2453 44.7226 17.5113C44.7226 17.9369 46.0032 17.9901 46.0032 18.5221C46.0032 19.0542 44.6692 19.4798 44.6692 19.8522C44.6692 20.1714 46.0032 19.9586 46.0032 20.331C46.0032 20.7034 45.0427 22.0335 45.0427 22.4059C45.0427 22.5123 45.0427 22.5123 45.1494 22.5123C45.523 22.5123 46.6436 21.2886 46.9104 21.2886C47.2306 21.2886 47.2839 22.0335 47.3373 22.4591C47.3906 22.6719 47.3906 22.7251 47.4974 22.7251C47.7108 22.7251 48.0843 21.8738 48.3512 21.8738C48.7247 21.8738 49.6852 22.8847 51.3394 22.8847C53.6873 22.8847 55.8752 21.2886 55.8752 18.4689C55.9285 15.7025 53.9008 14.1064 51.1793 14.1064ZM47.9243 20.1714C47.8709 20.1714 47.8175 20.1182 47.8175 20.0118L47.7642 19.267C47.7642 19.2138 47.7108 19.1074 47.6041 19.1074H46.8037C46.6969 19.1074 46.6436 19.1074 46.6436 19.0542C46.6436 18.8946 47.444 18.3625 47.444 18.2561C47.444 18.0433 46.6969 17.6709 46.6969 17.4049C46.6969 17.3517 46.7503 17.3517 46.8037 17.3517C47.0171 17.3517 47.3906 17.4049 47.6575 17.4049C47.9243 17.4049 47.9243 16.3409 48.1377 16.3409C48.2978 16.3409 48.5112 17.3517 48.7247 17.3517C48.9915 17.3517 49.4184 17.0857 49.6318 17.0857C49.6852 17.0857 49.6852 17.0857 49.6852 17.1389C49.6852 17.2453 49.2049 17.7773 49.2049 17.9369C49.2049 18.0965 50.2722 18.3093 50.2722 18.4689C50.2722 18.6817 49.1516 18.6285 49.1516 18.7882C49.1516 18.8946 49.5785 19.4266 49.5785 19.6394C49.5785 19.6926 49.5785 19.6926 49.5251 19.6926C49.365 19.6926 48.778 19.4266 48.618 19.4266C48.4045 19.4266 48.0843 20.1714 47.9243 20.1714ZM51.2327 21.8206C49.8986 21.8206 48.9915 21.1822 48.9915 20.8098C48.9915 20.6502 49.0982 20.5438 49.2583 20.5438C49.6852 20.5438 50.5924 21.1822 50.9125 21.1822C50.9659 21.1822 51.0726 21.129 51.0726 21.0226C51.0726 20.7034 50.7524 20.1182 50.7524 19.8522C50.7524 19.799 50.8058 19.7458 50.9125 19.7458C51.4461 19.7458 52.1932 19.9586 52.6201 19.9586C52.7802 19.9586 52.7802 19.9054 52.7802 19.799C52.7802 19.3734 51.4995 18.5753 51.4995 18.3093C51.4995 18.0965 53.047 17.7241 53.047 17.4049C53.047 17.0325 50.9125 17.2985 50.9125 16.9261C50.9125 16.6601 51.3394 16.2345 51.3394 16.0217C51.3394 15.9153 51.2861 15.9153 51.126 15.9153C50.9659 15.9153 50.0054 16.2877 49.6318 16.2877C49.4184 16.2877 49.2049 16.2345 49.2049 15.9685C49.2049 15.5428 49.952 15.064 51.126 15.064C53.047 15.064 54.1676 16.3409 54.1676 18.4689C54.221 21.129 52.2999 21.8206 51.2327 21.8206Z" fill="white"/>
<path fill-rule="evenodd" clip-rule="evenodd" d="M30.9551 19.533C31.7022 19.533 33.9434 20.5438 34.9573 20.5438C35.3308 20.5438 35.5443 20.331 35.5443 20.1182C35.5443 18.9478 32.3959 16.8729 32.3426 16.0217C32.3426 15.9153 32.3959 15.8621 32.4493 15.8089C32.9829 15.2237 35.2241 14.8513 35.2241 14.3725C35.2241 14.1064 34.7438 14.1064 34.5304 14.1064C32.7161 14.1064 30.1014 14.7449 30.1014 15.3833C30.1014 16.0217 32.4493 17.6178 32.4493 18.4158C32.4493 18.6286 32.2892 18.6818 32.0757 18.6818C31.4354 18.6818 29.9946 17.8838 29.3009 17.8838C28.9808 17.8838 28.874 18.0966 28.874 18.4158C28.874 19.3202 29.9946 21.0759 29.9946 21.6079C29.9946 21.6611 29.9946 21.7675 29.8879 21.7675C29.5144 21.7675 27.9135 19.8522 27.3265 19.8522C27.1131 19.8522 27.1131 20.1182 27.1131 20.5438V21.1823C27.1131 21.6079 27.1131 21.8739 26.8996 21.8739C26.4194 21.8739 26.1526 20.4906 25.6723 20.4906C25.1921 20.4906 25.0853 22.9911 24.6051 22.9911C24.0181 22.9911 24.4984 20.2778 23.9647 20.2778C23.3778 20.2778 22.6841 22.0867 22.2572 22.0867C22.0971 22.0867 22.0437 21.9271 22.0437 21.8207C22.0437 21.2887 22.3639 20.3842 22.3639 19.8522C22.3639 19.5862 22.3105 19.4266 22.0437 19.4266C21.4567 19.4266 20.1227 20.3842 19.6424 20.3842C19.5891 20.3842 19.4824 20.331 19.4824 20.2778C19.4824 19.799 21.6168 18.3626 21.6168 17.7242C21.6168 17.0857 18.6819 17.5114 18.6819 16.7665C18.6819 16.1813 20.763 15.5429 20.763 14.9045C20.763 14.3725 18.3084 14.1064 17.3479 14.1064C16.2273 14.1064 15.5869 14.2661 15.5869 14.5853C15.5869 15.0641 18.2017 15.2237 18.2017 15.6493C18.2017 16.0749 15.4802 17.1921 15.4802 17.8306C15.4802 18.4158 19.2689 17.8838 19.2689 18.469C19.2689 19.1074 15.9605 21.9271 15.9605 22.8847C15.9605 23.0975 16.1206 23.2039 16.334 23.2039C17.3479 23.2039 19.9626 21.2887 20.6563 21.2887C20.9231 21.2887 20.9231 21.6079 20.9231 21.8739C20.9231 22.3527 20.763 23.1507 20.763 23.6827C20.763 24.1084 20.8698 24.4276 21.2433 24.4276C21.937 24.4276 22.6307 23.2039 23.111 23.2039C23.7513 23.2039 23.3778 26.7152 24.2849 26.7152C25.0853 26.7152 25.4055 22.8847 25.8858 22.8847C26.366 22.8847 26.7929 24.002 27.2732 24.002C27.8602 24.002 27.5934 22.0867 28.1803 22.0867C28.874 22.0867 30.7951 24.3744 31.7022 24.3744C31.969 24.3744 32.0757 24.1616 32.0757 23.8956C32.0757 22.8847 30.635 20.597 30.635 19.8522C30.6883 19.5862 30.7417 19.533 30.9551 19.533Z" fill="white"/>
<path fill-rule="evenodd" clip-rule="evenodd" d="M32.1824 20.8631C32.1291 20.8631 32.0757 20.9163 32.0757 20.9695C32.0757 21.6611 34.5304 24.9064 34.9572 24.9064C35.3308 24.9064 35.651 24.2148 35.651 23.6828C35.651 23.5232 35.5976 23.3636 35.5442 23.2572C35.1707 22.7251 32.7161 20.8631 32.1824 20.8631ZM17.8281 19.001C17.8281 18.8414 17.5079 18.7882 17.2411 18.7882C16.8142 18.7882 16.2273 18.8946 15.9604 19.1074C15.747 19.267 15.5869 19.799 15.5869 20.1715C15.5869 20.3843 15.6403 20.5971 15.8537 20.5971C16.334 20.6503 17.8281 19.3734 17.8281 19.001ZM21.2966 16.6069C21.7235 16.6069 22.4172 16.3941 22.8975 16.3941C23.1643 16.3941 23.4311 16.4473 23.4311 16.7133C23.4311 17.1922 22.3639 18.0434 22.3639 18.4158C22.3639 18.5222 22.4706 18.5754 22.5773 18.5754C22.9508 18.5754 23.6445 17.6178 24.2315 17.6178C25.2454 17.6178 24.6051 19.799 25.1387 19.799C25.7257 19.799 25.4588 17.671 26.3126 17.671C27.0063 17.671 27.4866 19.1606 27.9669 19.1606C28.0736 19.1606 28.1803 19.0542 28.1803 18.9478C28.1803 18.5222 27.5933 17.7242 27.5933 17.1922C27.5933 16.873 27.8068 16.7133 28.1269 16.7133C28.5538 16.7133 29.1942 16.9794 29.5143 16.9794C29.6211 16.9794 29.7278 16.9262 29.7278 16.8198C29.7278 16.3409 28.0202 15.8621 28.0202 15.2769C28.0202 14.6917 28.9807 14.6917 28.9807 14.4257C28.9807 14.3193 28.3937 14.2129 27.5933 14.2129C26.3126 14.2129 26.5261 15.2237 25.5122 15.2237C24.4983 15.2237 24.7651 14.1597 23.4845 14.1597C22.684 14.1597 21.9903 14.3193 21.9903 14.4789C21.9903 14.6917 22.8975 14.5853 22.8975 15.2237C22.8975 15.9153 20.9231 16.0749 20.9231 16.5005C20.9231 16.5537 21.0832 16.6069 21.2966 16.6069ZM33.5165 16.3409C33.5165 16.6601 34.7438 17.405 35.2774 17.405C35.5976 17.405 35.7043 16.9794 35.7043 16.5005C35.7043 15.9153 35.4375 15.9153 34.9572 15.9153C34.3169 15.9153 33.5165 16.0749 33.5165 16.3409Z" fill="white"/>
</g>
<defs>
<clipPath id="clip0_2002_37">
<rect width="50" height="51.0204" fill="white" transform="translate(15 14)"/>
</clipPath>
</defs>
</svg>
