<svg width="80" height="80" viewBox="0 0 80 80" fill="none" xmlns="http://www.w3.org/2000/svg">
<circle cx="40" cy="40" r="40" fill="#873EAF"/>
<g clip-path="url(#clip0_2002_81)">
<path d="M57.4785 36.6469C47.9541 30.9906 32.2435 30.4705 23.1512 33.2301C21.6911 33.6732 20.147 32.8486 19.7047 31.389C19.2622 29.9279 20.0855 28.3849 21.5468 27.941C31.9841 24.7729 49.3347 25.3847 60.2995 31.8935C61.6127 32.6733 62.0436 34.3694 61.2652 35.6805C60.4861 36.9937 58.7886 37.4266 57.4785 36.6469ZM57.1666 45.0247C56.4984 46.109 55.0807 46.4492 53.9978 45.7833C46.0572 40.9023 33.949 39.4883 24.5547 42.34C23.3365 42.7081 22.0497 42.0212 21.6797 40.8053C21.3126 39.587 21.9998 38.3026 23.2159 37.9322C33.9475 34.6756 47.2886 36.253 56.4087 41.8576C57.4916 42.5245 57.8324 43.9429 57.1666 45.0247ZM53.5511 53.0705C53.0201 53.9413 51.8864 54.2141 51.0188 53.6833C44.0802 49.4426 35.3467 48.485 25.0615 50.8341C24.0704 51.0614 23.0826 50.4403 22.8566 49.4493C22.6295 48.4585 23.2483 47.4706 24.2416 47.2444C35.497 44.6713 45.1519 45.7788 52.94 50.5378C53.8083 51.0681 54.0818 52.2025 53.5511 53.0705ZM40.0002 10.4523C23.6816 10.4523 10.4524 23.6812 10.4524 39.9995C10.4524 56.3198 23.6816 69.5476 40.0002 69.5476C56.3191 69.5476 69.5477 56.3198 69.5477 39.9995C69.5477 23.6812 56.3191 10.4523 40.0002 10.4523Z" fill="#F8F9FF"/>
</g>
<defs>
<clipPath id="clip0_2002_81">
<rect width="60" height="60" fill="white" transform="translate(10 10)"/>
</clipPath>
</defs>
</svg>
