<svg width="100" height="100" viewBox="0 0 100 100" fill="none" xmlns="http://www.w3.org/2000/svg">
<circle cx="50" cy="50" r="50" fill="#AC6CFF"/>
<path d="M41.6964 30.7734C45.3918 24.1467 47.238 20.8334 50.0001 20.8334C52.7622 20.8334 54.6084 24.1467 58.3039 30.7734L59.2605 32.4884C60.3105 34.3725 60.8355 35.3146 61.6522 35.9359C62.4689 36.5571 63.4897 36.7875 65.5314 37.2484L67.3864 37.6684C74.5614 39.293 78.146 40.1038 79.0005 42.8484C79.8522 45.59 77.408 48.4513 72.5168 54.1709L71.2509 55.6496C69.8626 57.2742 69.1655 58.088 68.8535 59.0913C68.5414 60.0975 68.6464 61.1825 68.8564 63.3496L69.0489 65.3242C69.7868 72.9571 70.1572 76.7721 67.923 78.4667C65.6889 80.1642 62.3289 78.6155 55.6147 75.5238L53.8734 74.7246C51.9659 73.8438 51.0122 73.4063 50.0001 73.4063C48.988 73.4063 48.0343 73.8438 46.1268 74.7246L44.3884 75.5238C37.6714 78.6155 34.3114 80.1613 32.0801 78.4696C29.843 76.7721 30.2134 72.9571 30.9514 65.3242L31.1439 63.3525C31.3539 61.1825 31.4589 60.0975 31.1439 59.0942C30.8347 58.088 30.1376 57.2742 28.7493 55.6525L27.4835 54.1709C22.5922 48.4542 20.148 45.593 20.9997 42.8484C21.8543 40.1038 25.4418 39.29 32.6168 37.6684L34.4718 37.2484C36.5105 36.7875 37.5285 36.5571 38.348 35.9359C39.1647 35.3146 39.6897 34.3725 40.7397 32.4884L41.6964 30.7734Z" stroke="#F8F9FF" stroke-width="4"/>
</svg>
