<svg width="100" height="100" viewBox="0 0 100 100" fill="none" xmlns="http://www.w3.org/2000/svg">
<circle cx="50" cy="50" r="50" fill="#AC6CFF"/>
<path d="M41.2499 35.4167H30.0062C32.7149 31.6919 36.4072 28.7949 40.6695 27.0501C44.9317 25.3053 49.5956 24.7817 54.1387 25.538C54.5126 25.5843 54.89 25.4841 55.1917 25.2584C55.4934 25.0327 55.696 24.699 55.7571 24.3271C55.8182 23.9553 55.733 23.5743 55.5194 23.2639C55.3058 22.9535 54.9803 22.7379 54.6112 22.6621C53.0865 22.4149 51.5445 22.291 49.9999 22.2917C45.7783 22.2988 41.6139 23.2684 37.8234 25.1268C34.0329 26.9851 30.716 29.6834 28.1249 33.0163V22.2917C28.1249 21.9049 27.9713 21.534 27.6978 21.2605C27.4243 20.987 27.0534 20.8334 26.6666 20.8334C26.2798 20.8334 25.9089 20.987 25.6354 21.2605C25.3619 21.534 25.2083 21.9049 25.2083 22.2917V36.875C25.2083 37.2618 25.3619 37.6327 25.6354 37.9062C25.9089 38.1797 26.2798 38.3334 26.6666 38.3334H41.2499C41.6367 38.3334 42.0076 38.1797 42.2811 37.9062C42.5546 37.6327 42.7083 37.2618 42.7083 36.875C42.7083 36.4883 42.5546 36.1173 42.2811 35.8438C42.0076 35.5704 41.6367 35.4167 41.2499 35.4167ZM36.8749 57.2917C36.4881 57.2917 36.1172 57.4454 35.8437 57.7188C35.5702 57.9923 35.4166 58.3633 35.4166 58.75V69.9938C31.6918 67.2851 28.7948 63.5928 27.05 59.3305C25.3052 55.0682 24.7816 50.4043 25.5378 45.8613C25.5842 45.4874 25.484 45.11 25.2583 44.8083C25.0326 44.5066 24.6988 44.3039 24.327 44.2428C23.9552 44.1817 23.5742 44.2669 23.2638 44.4806C22.9534 44.6942 22.7377 45.0197 22.662 45.3888C21.8399 50.327 22.3682 55.3955 24.1909 60.0581C26.0136 64.7206 29.0629 68.8036 33.0162 71.875H22.2916C21.9048 71.875 21.5339 72.0287 21.2604 72.3022C20.9869 72.5757 20.8333 72.9466 20.8333 73.3334C20.8333 73.7201 20.9869 74.0911 21.2604 74.3646C21.5339 74.6381 21.9048 74.7917 22.2916 74.7917H36.8749C37.2617 74.7917 37.6326 74.6381 37.9061 74.3646C38.1796 74.0911 38.3333 73.7201 38.3333 73.3334V58.75C38.3333 58.3633 38.1796 57.9923 37.9061 57.7188C37.6326 57.4454 37.2617 57.2917 36.8749 57.2917ZM73.3332 61.6667H58.7499C58.3631 61.6667 57.9922 61.8204 57.7187 62.0938C57.4452 62.3673 57.2916 62.7383 57.2916 63.125C57.2916 63.5118 57.4452 63.8827 57.7187 64.1562C57.9922 64.4297 58.3631 64.5834 58.7499 64.5834H69.9937C67.2849 68.3081 63.5926 71.2052 59.3304 72.95C55.0681 74.6947 50.4042 75.2183 45.8612 74.4621C45.4872 74.4158 45.1099 74.5159 44.8081 74.7417C44.5064 74.9674 44.3038 75.3011 44.2427 75.6729C44.1816 76.0448 44.2668 76.4258 44.4805 76.7362C44.6941 77.0466 45.0196 77.2622 45.3887 77.338C46.9133 77.5852 48.4554 77.7091 49.9999 77.7084C54.2215 77.7013 58.3859 76.7317 62.1764 74.8733C65.967 73.0149 69.2839 70.3167 71.8749 66.9838V77.7084C71.8749 78.0951 72.0286 78.4661 72.3021 78.7396C72.5755 79.0131 72.9465 79.1667 73.3332 79.1667C73.72 79.1667 74.091 79.0131 74.3644 78.7396C74.6379 78.4661 74.7916 78.0951 74.7916 77.7084V63.125C74.7916 62.7383 74.6379 62.3673 74.3644 62.0938C74.091 61.8204 73.72 61.6667 73.3332 61.6667ZM77.7082 25.2084H63.1249C62.7381 25.2084 62.3672 25.362 62.0937 25.6355C61.8202 25.909 61.6666 26.2799 61.6666 26.6667V41.25C61.6666 41.6368 61.8202 42.0077 62.0937 42.2812C62.3672 42.5547 62.7381 42.7084 63.1249 42.7084C63.5117 42.7084 63.8826 42.5547 64.1561 42.2812C64.4296 42.0077 64.5832 41.6368 64.5832 41.25V29.9917C67.3939 32.0104 69.7391 34.6082 71.4607 37.61C73.6466 41.3731 74.7959 45.6482 74.7916 50C74.7916 51.3855 74.6837 52.7709 74.462 54.1388C74.431 54.3276 74.4374 54.5207 74.481 54.707C74.5246 54.8934 74.6045 55.0693 74.7161 55.2247C74.8277 55.3802 74.9688 55.5122 75.1314 55.6131C75.294 55.714 75.4748 55.7819 75.6637 55.813C75.8525 55.844 76.0456 55.8375 76.2319 55.7939C76.4182 55.7503 76.5942 55.6704 76.7496 55.5589C76.9051 55.4473 77.037 55.3062 77.138 55.1436C77.2389 54.981 77.3068 54.8001 77.3378 54.6113C77.585 53.0867 77.7089 51.5446 77.7082 50C77.7126 45.1375 76.4295 40.3606 73.9895 36.1546C72.2128 33.0423 69.8365 30.3131 66.9982 28.125H77.7082C78.095 28.125 78.466 27.9714 78.7394 27.6979C79.0129 27.4244 79.1666 27.0535 79.1666 26.6667C79.1666 26.2799 79.0129 25.909 78.7394 25.6355C78.466 25.362 78.095 25.2084 77.7082 25.2084Z" fill="#F8F9FF"/>
</svg>
